<?xml version="1.0" encoding="UTF-8" standalone="yes"?>
<svg width="97" height="34" viewBox="0 0 97 34" fill="none" xmlns="http://www.w3.org/2000/svg">
  <path d="M0.281471 25.9936V0.216934H18.4132V4.41964H5.68495V11.0239H16.9322V15.1866H5.68495V25.9936H0.281471ZM30.0635 26.3938C26.7814 26.3938 24.1797 25.58 22.2585 23.9522C20.3372 22.2978 19.3766 19.8029 19.3766 16.4674C19.3766 13.4521 20.1771 11.0639 21.7781 9.30279C23.4059 7.51497 25.8207 6.62106 29.0228 6.62106C31.958 6.62106 34.1995 7.3949 35.7471 8.94256C37.3215 10.4635 38.1087 12.4648 38.1087 14.9464V18.3887H24.3798C24.6733 19.9096 25.3671 20.9503 26.4612 21.5107C27.5819 22.071 29.1562 22.3512 31.1842 22.3512C32.1982 22.3512 33.2255 22.2578 34.2662 22.071C35.3335 21.8842 36.2408 21.6441 36.9879 21.3506V25.193C36.1074 25.5933 35.08 25.8868 33.906 26.0736C32.7319 26.2871 31.451 26.3938 30.0635 26.3938ZM24.3798 15.0665H33.3856V14.0258C33.3856 12.9318 33.0654 12.0779 32.425 11.4642C31.7846 10.8238 30.7039 10.5036 29.1829 10.5036C27.3951 10.5036 26.141 10.8638 25.4205 11.5843C24.7267 12.3047 24.3798 13.4655 24.3798 15.0665ZM44.6451 33.0381C43.8179 33.0381 43.0841 32.9847 42.4436 32.878C41.8032 32.7979 41.1762 32.6378 40.5624 32.3977V28.5952C41.0161 28.7553 41.4297 28.8621 41.8032 28.9154C42.2035 28.9688 42.6038 28.9955 43.004 28.9955C44.098 28.9955 44.9386 28.742 45.5256 28.235C46.1394 27.728 46.7531 26.8741 47.3668 25.6733L38.8814 7.02132H44.525L50.0886 19.9096L55.6121 7.02132H61.2158L53.7309 24.6727C53.0371 26.3271 52.2767 27.7814 51.4495 29.0355C50.6489 30.3163 49.7017 31.3036 48.6076 31.9974C47.5136 32.6912 46.1927 33.0381 44.6451 33.0381ZM72.3173 26.3938C69.0352 26.3938 66.4335 25.58 64.5122 23.9522C62.591 22.2978 61.6304 19.8029 61.6304 16.4674C61.6304 13.4521 62.4309 11.0639 64.0319 9.30279C65.6597 7.51497 68.0745 6.62106 71.2766 6.62106C74.2118 6.62106 76.4533 7.3949 78.0009 8.94256C79.5753 10.4635 80.3625 12.4648 80.3625 14.9464V18.3887H66.6336C66.9271 19.9096 67.6209 20.9503 68.715 21.5107C69.8357 22.071 71.41 22.3512 73.438 22.3512C74.452 22.3512 75.4793 22.2578 76.52 22.071C77.5873 21.8842 78.4946 21.6441 79.2417 21.3506V25.193C78.3612 25.5933 77.3338 25.8868 76.1598 26.0736C74.9857 26.2871 73.7048 26.3938 72.3173 26.3938ZM66.6336 15.0665H75.6394V14.0258C75.6394 12.9318 75.3192 12.0779 74.6788 11.4642C74.0384 10.8238 72.9577 10.5036 71.4367 10.5036C69.6489 10.5036 68.3948 10.8638 67.6743 11.5843C66.9805 12.3047 66.6336 13.4655 66.6336 15.0665ZM84.1246 25.9936V7.02132H89.1278L89.368 8.98259C90.2218 8.44891 91.2759 7.9686 92.53 7.54166C93.8108 7.08803 95.065 6.78117 96.2924 6.62106V10.7037C95.572 10.8104 94.7848 10.9705 93.9309 11.184C93.077 11.3975 92.2632 11.6376 91.4893 11.9045C90.7155 12.1713 90.0617 12.4515 89.5281 12.745V25.9936H84.1246Z" fill="black"/>
</svg>